<?xml version="1.0" standalone="no"?><!DOCTYPE svg PUBLIC "-//W3C//DTD SVG 1.1//EN" "http://www.w3.org/Graphics/SVG/1.1/DTD/svg11.dtd"><svg class="icon" width="200px" height="200.00px" viewBox="0 0 1024 1024" version="1.1" xmlns="http://www.w3.org/2000/svg"><path fill="#1296db" d="M889.104707 387.688763l70.419839-75.851549-19.678178-18.260899-70.236668 75.641771C692.654476 551.906895 514.610454 546.317597 512.432859 546.527374 282.437627 545.399691 86.775342 312.650743 84.820827 310.288952l-20.688181 17.158798c4.218068 5.081739 57.688887 68.527746 140.991128 129.708154l-77.419254 94.330412 20.780279 17.054421 78.625732-95.801926c45.570895 31.146371 98.579179 60.231803 156.648736 79.054497l-34.639938 117.182886 25.764803 7.608282 34.744315-117.550253c32.855292 8.635681 66.927295 14.161534 102.120842 14.33345 0.603751 0.052189 2.295276 0.105401 4.972245 0.105401 13.709233 0 53.500495-1.684362 108.149139-18.088984l30.854728 175.038572 26.447349-4.670369L650.64264 546.901905c48.557926-17.454534 106.129132-46.603411 166.388565-94.158497l55.990199 100.527554 23.481807-13.065574-58.413388-104.879676C854.996888 420.868443 872.018563 405.329539 889.104707 387.688763z" /></svg>