<?xml version="1.0" standalone="no"?><!DOCTYPE svg PUBLIC "-//W3C//DTD SVG 1.1//EN" "http://www.w3.org/Graphics/SVG/1.1/DTD/svg11.dtd"><svg class="icon" width="200px" height="200.00px" viewBox="0 0 1024 1024" version="1.1" xmlns="http://www.w3.org/2000/svg"><path fill="#1296db" d="M935 510.7c-0.9-36.4-14.1-72.1-38-103.3-17.8-23.1-67.3-82.1-145.1-133.5-78.7-52-158.7-78.3-237.8-78.3-79.2 0-159.3 26.4-238 78.3-77.8 51.4-127.5 110.5-145.2 133.5l-0.1 0.2-0.1 0.2C107 439 94 474.9 93.1 511.8v3.8c0.9 36.2 13.9 71.8 37.6 103l0.1 0.2 0.1 0.2c17.7 23 67.3 82.1 145.1 133.5 78.7 52 158.7 78.3 237.9 78.3 79.2 0 159.3-26.4 238-78.4C829.7 701 879.3 642 897 618.9c24-31.2 37.1-67.2 38-104.3v-3.9z m-42.7 2.9c-0.7 27.9-10.8 55.4-29.2 79.3-16.4 21.3-62.3 76-134.8 123.9-71.6 47.3-143.7 71.3-214.4 71.3-70.7 0-142.8-24-214.4-71.3-72.4-47.8-118.3-102.6-134.7-123.9v-0.2c-18.3-24-28.3-51.1-28.9-78.2v-1.6c0.7-27.8 10.6-55.2 29-79.3 16.4-21.3 62.4-76.1 134.9-123.9 71.6-47.3 143.8-71.3 214.5-71.3 70.6 0 142.7 24 214.3 71.3C801 357.5 847 412.3 863.4 433.6c18.4 23.9 28.5 51 29.2 78.4v0.9l-0.3 0.7zM514 330.8c-100.6 0-182.4 81.8-182.4 182.4S413.4 695.6 514 695.6c100.6 0 182.4-81.8 182.4-182.4S614.6 330.8 514 330.8z m0 322.1c-77 0-139.7-62.7-139.7-139.7S437 373.5 514 373.5c77 0 139.7 62.7 139.7 139.7S591 652.9 514 652.9z" /></svg>