<?xml version="1.0" standalone="no"?><!DOCTYPE svg PUBLIC "-//W3C//DTD SVG 1.1//EN" "http://www.w3.org/Graphics/SVG/1.1/DTD/svg11.dtd"><svg class="icon" width="200px" height="200.00px" viewBox="0 0 1024 1024" version="1.1" xmlns="http://www.w3.org/2000/svg"><path d="M788.48 522.24s-47.104 10.24-24.576-24.576c34.816-65.536-22.528-174.08-167.936-102.4-49.152 26.624-49.152 8.192-49.152-24.576 4.096-178.176-333.824-51.2-430.08 180.224-53.248 141.312 32.768 262.144 165.888 315.392 325.632 114.688 565.248-73.728 604.16-196.608 57.344-182.272-98.304-147.456-98.304-147.456z" fill="#FFFFFF" /><path d="M483.328 942.08c-63.488 0-135.168-10.24-212.992-36.864-169.984-67.584-247.808-219.136-190.464-368.64 77.824-186.368 292.864-313.344 417.792-286.72 53.248 12.288 86.016 49.152 90.112 104.448 110.592-49.152 169.984-6.144 190.464 14.336 28.672 28.672 40.96 69.632 32.768 108.544 28.672 0 69.632 6.144 98.304 36.864 32.768 36.864 38.912 92.16 18.432 165.888-26.624 77.824-104.448 155.648-204.8 204.8-57.344 30.72-137.216 57.344-239.616 57.344z m-22.528-614.4c-86.016 0-245.76 98.304-305.152 239.616-47.104 122.88 38.912 219.136 143.36 262.144 174.08 61.44 307.2 26.624 389.12-14.336 90.112-45.056 147.456-110.592 161.792-157.696 12.288-40.96 12.288-73.728 0-86.016-12.288-14.336-45.056-10.24-55.296-8.192-14.336 4.096-51.2 8.192-71.68-20.48-8.192-10.24-16.384-32.768 2.048-63.488 8.192-16.384 6.144-38.912-8.192-51.2-14.336-22.528-55.296-18.432-102.4 4.096-16.384 8.192-53.248 26.624-81.92 8.192S505.856 389.12 507.904 368.64c0-30.72-12.288-36.864-26.624-38.912-6.144-2.048-12.288-2.048-20.48-2.048z" fill="#511017" /><path d="M788.48 522.24s-47.104 10.24-24.576-24.576c34.816-65.536-22.528-174.08-167.936-102.4-49.152 26.624-49.152 8.192-49.152-24.576 4.096-178.176-333.824-51.2-430.08 180.224-53.248 141.312 32.768 262.144 165.888 315.392 325.632 114.688 565.248-73.728 604.16-196.608 57.344-182.272-98.304-147.456-98.304-147.456zM489.472 835.584c-155.648 20.48-292.864-47.104-307.2-149.504s100.352-204.8 253.952-225.28 292.864 47.104 307.2 149.504-100.352 204.8-253.952 225.28z" fill="#F43B51" /><path d="M591.872 634.88c-14.336-71.68-96.256-114.688-186.368-98.304s-151.552 90.112-137.216 159.744 96.256 114.688 186.368 98.304c90.112-16.384 151.552-88.064 137.216-159.744z" fill="#4F3636" /><path d="M391.168 735.232c-38.912 8.192-71.68-24.576-61.44-61.44 4.096-18.432 18.432-32.768 36.864-36.864 38.912-8.192 71.68 24.576 61.44 61.44-4.096 18.432-18.432 32.768-36.864 36.864z" fill="#FFFFFF" /><path d="M481.28 655.36c-14.336 0-30.72-14.336-30.72-30.72s16.384-30.72 30.72-30.72 30.72 14.336 30.72 30.72-16.384 30.72-30.72 30.72z" fill="#FFFFFF" /><path d="M710.656 266.24H655.36l94.208 143.36 94.208-143.36h-51.2v-53.248c0-59.392 43.008-139.264 153.6-143.36-227.328-36.864-241.664 63.488-241.664 143.36 2.048 14.336 4.096 32.768 6.144 53.248z" fill="#81DB61" /><path d="M749.568 466.944c-6.144 0-12.288-4.096-16.384-8.192l-133.12-200.704c-4.096-6.144-4.096-14.336 0-20.48 2.048-8.192 10.24-12.288 16.384-12.288h49.152v-12.288c0-51.2 6.144-104.448 49.152-145.408C761.856 22.528 839.68 10.24 956.416 28.672c10.24 2.048 18.432 10.24 16.384 20.48l-2.048 36.864c0 14.336-10.24 22.528-20.48 24.576-77.824 2.048-114.688 53.248-114.688 102.4v18.432L880.64 225.28c8.192-2.048 16.384 2.048 20.48 10.24 4.096 6.144 4.096 16.384 0 22.528l-133.12 200.704c-4.096 4.096-10.24 8.192-18.432 8.192zM655.36 266.24l94.208 143.36 94.208-141.312h-51.2v-55.296c0-75.776 55.296-133.12 135.168-141.312v-4.096c-92.16-12.288-153.6-2.048-188.416 30.72-22.528 24.576-32.768 55.296-32.768 114.688 0 8.192 0 18.432 2.048 30.72 0 6.144 2.048 16.384 2.048 22.528H655.36z" fill="#16380A" /></svg>